<?xml version="1.0" encoding="utf-8"?>
<!-- Generator: Adobe Illustrator 24.2.1, SVG Export Plug-In . SVG Version: 6.00 Build 0)  -->
<svg version="1.1" id="Layer_1" xmlns="http://www.w3.org/2000/svg" xmlns:xlink="http://www.w3.org/1999/xlink" x="0px" y="0px"
	 viewBox="0 0 48 48" style="enable-background:new 0 0 48 48;" xml:space="preserve">
<style type="text/css">
	.st0{fill-rule:evenodd;clip-rule:evenodd;fill:#333333;}
</style>
<path class="st0" d="M26.4,4.7c0-1.3-1.1-2.4-2.4-2.4s-2.4,1.1-2.4,2.4v2.4c-5.3,0-9.7,4.3-9.7,9.7s4.3,9.7,9.7,9.7v9.7
	c-2.1,0-3.9-1.3-4.6-3.2c-0.4-1.3-1.8-1.9-3.1-1.5c-1.3,0.4-1.9,1.8-1.5,3.1c1.3,3.8,4.9,6.4,9.1,6.4v2.4c0,1.3,1.1,2.4,2.4,2.4
	s2.4-1.1,2.4-2.4v-2.4c5.3,0,9.7-4.3,9.7-9.7s-4.3-9.7-9.7-9.7v-9.7c2.1,0,3.9,1.3,4.6,3.2c0.4,1.3,1.8,1.9,3.1,1.5
	c1.3-0.4,1.9-1.8,1.5-3.1c-1.3-3.8-4.9-6.4-9.1-6.4V4.7z M21.6,11.9c-2.7,0-4.8,2.2-4.8,4.8s2.2,4.8,4.8,4.8V11.9z M26.4,26.4v9.7
	c2.7,0,4.8-2.2,4.8-4.8C31.3,28.6,29.1,26.4,26.4,26.4z"/>
</svg>
